<?xml version="1.0" encoding="utf-8"?>
<!-- Generator: Adobe Illustrator 19.2.1, SVG Export Plug-In . SVG Version: 6.00 Build 0)  -->
<svg version="1.1" id="Layer_1" xmlns="http://www.w3.org/2000/svg" xmlns:xlink="http://www.w3.org/1999/xlink" x="0px" y="0px"
	 width="486.6px" height="127.8px" viewBox="0 0 486.6 127.8" style="enable-background:new 0 0 486.6 127.8;" xml:space="preserve"
	>
<style type="text/css">
	.st0{fill:none;}
	.st1{fill:#EE2D74;}
	.st2{fill:#FFFFFF;}
</style>
<g>
	<path class="st0" d="M315.9,45.9c-5.5,0-10.1,3.1-10.8,13.7h20.5C325.5,48.7,321.2,45.9,315.9,45.9z"/>
	<path class="st0" d="M457.8,45.9c-5.5,0-10.1,3.1-10.8,13.7h20.5C467.3,48.7,463.1,45.9,457.8,45.9z"/>
	<ellipse class="st1" cx="11.7" cy="44.6" rx="11.7" ry="11.7"/>
	<ellipse class="st1" cx="11.7" cy="88.2" rx="11.7" ry="11.7"/>
</g>
<path class="st2" d="M101.3,20.1c0-15.6-11.1-18.6-23.1-18.6c-17.8,0-27.6,7.2-27.6,24.6v7.1H41v12.9h8.6c1,0,1,0.5,1,1.3v39.2
	c0,1.9-0.3,2.5-2.1,2.7l-7.2,0.8v10.3h46.8V90.3l-15.7-1.4c-1.9-0.1-2.3-0.5-2.3-2.6V46.2h21.4V33.3H71.1c-1,0-1-0.4-1-1.3v-8.1
	c0-6.2,0.8-9.7,7.2-9.7c4.3,0,6.1,1.5,5.9,8.1L101.3,20.1z"/>
<path class="st2" d="M119.3,23c7.5,0,11.7-4.3,11.7-11.6C131,4,126.8,0,119.3,0c-7.4,0-11.6,4-11.6,11.3
	C107.7,18.7,111.9,23,119.3,23z"/>
<path class="st2" d="M130.8,86.8V33.3h-26.7l-1.4,10.4l7,2.5c1.3,0.4,1.7,1.3,1.7,2.7v37.9c0,1.9-0.3,2.3-2.1,2.6l-6.6,0.9v10.2
	h36.8V90.3l-6.6-0.9C130.9,89.1,130.8,88.8,130.8,86.8z"/>
<path class="st2" d="M178.5,58.8c-7.9-1.8-15-3-15-8.3c0-4.1,3.6-6.6,10.1-6.6c3.5,0,6.6,0.5,8.3,1c0.9,0.3,1.2,0.8,1.3,1.8l1.3,6.7
	l13.8,0.9V35.7c-3.6-1.4-13.5-3.7-23.7-3.7c-14.8,0-28.5,6.6-28.5,22.6c0,16.9,14.2,19.2,25,21.1c6.6,1.2,11.7,2.7,11.7,7.9
	c0,4.8-3.9,6.7-10.7,6.7c-4.9,0-8.4-0.8-9.9-1.3c-1.2-0.3-1.4-0.8-1.5-1.9l-1.3-7.4l-13.8-1v18.7c2.3,1.5,13.8,4.6,25.5,4.6
	c16.4,0,29.1-6.4,29.1-22.2C200.1,64.7,188.7,61.1,178.5,58.8z"/>
<path class="st2" d="M272.1,86.8V52.9c0-13.4-5-20.9-18.7-20.9c-8.1,0-14.8,3-20.6,7.7l-0.6-0.1V3.1h-26.6l-1.4,10.4l7.1,2.5
	c1.3,0.4,1.7,1.3,1.7,2.7v68.1c0,1.9-0.3,2.3-2.1,2.6l-5.8,0.9v10.2h35.6V90.3l-6.2-0.9c-1.9-0.3-2.1-0.5-2.1-2.6V52.2
	c3.2-2.3,8.6-4.8,13.4-4.8c6.4,0,6.8,7.1,6.8,11v42h28V90.3l-6.4-0.9C272.2,89.1,272.1,88.8,272.1,86.8z"/>
<path class="st2" d="M316.3,32c-17.7,0-32,11.1-32,34.4c0,20.1,8.5,35.6,33.4,35.6c9.7,0,18.4-2.7,26.4-6.6l-4.8-12.8
	c-8.8,3.2-14.2,4.4-19.2,4.4c-10.6,0-14.6-6.1-15.2-15.2h39.5c0.1-2.6,0.3-7.1,0.3-8.6C344.7,40.9,333.4,32,316.3,32z M305.1,59.6
	c0.8-10.6,5.3-13.7,10.8-13.7c5.3,0,9.5,2.8,9.7,13.7H305.1z"/>
<path class="st2" d="M395.5,43.7l8.4,1l-13.7,34h-0.9l-14.3-34l8.1-1V33.3H349l-2.1,10.4l5.3,1.3c1.5,0.4,2.2,0.6,2.7,2.2l24.6,53.9
	l-5.5,12.3c-0.8,1.8-1.5,2.7-3.2,2.8l-10.1,1.2v10.4h42.9v-10.3l-13.4-1.4l28.4-69.4c0.6-1.5,1.7-1.9,3.2-2.2l4.1-0.8V33.3h-28.8
	L395.5,43.7z"/>
<path class="st2" d="M486.6,63.2c0-22.3-11.3-31.2-28.4-31.2c-17.7,0-32,11.1-32,34.4c0,20.1,8.5,35.6,33.4,35.6
	c9.7,0,18.4-2.7,26.4-6.6l-4.8-12.8c-8.8,3.2-14.2,4.4-19.2,4.4c-10.6,0-14.6-6.1-15.2-15.2h39.5C486.4,69.2,486.6,64.7,486.6,63.2z
	 M447,59.6c0.8-10.6,5.3-13.7,10.8-13.7c5.3,0,9.5,2.8,9.7,13.7H447z"/>
</svg>
